<?xml version="1.0" encoding="utf-8"?>
<!-- Generator: Adobe Illustrator 22.1.0, SVG Export Plug-In . SVG Version: 6.00 Build 0)  -->
<svg version="1.1" id="Capa_1" xmlns="http://www.w3.org/2000/svg" xmlns:xlink="http://www.w3.org/1999/xlink" x="0px" y="0px"
	 viewBox="0 0 1052 979" style="enable-background:new 0 0 1052 979;" xml:space="preserve">
<style type="text/css">
	.st0{fill:#FFFFFF;}
</style>
<path class="st0" d="M840.5,362.2c0-49,0-96.9,0-144.7c0-14.9,0-25.9,20.1-26.6c20.1-0.6,23.8,9.7,23.1,26.6
	c-0.6,57.6,0.6,115.3-0.6,172.9c-0.6,19,3.5,32.4,21.4,43.2c13.8,8.6,25.9,19.6,36.3,32.4c35.2,41,38,92.8-1.7,129.8
	c-110.1,100.4-228.9,182.2-386.9,185c-106.7,1.7-209.9-9.3-301.6-65.9c-51.8-33.5-99.8-70.4-144.2-111.4
	c-49-43.8-47.3-100.4-1.1-146.4c24.2-24.8,48.4-48.4,72.8-73.2c68-68.7,153.9-99.1,246.8-114.2c104.3-16.2,207.1-6.9,305.1,33.5
	C766.3,319.1,800.2,341.1,840.5,362.2z M838.8,388.4c-76.6-79.7-176-109.7-282.6-115.3c-140.8-8-271,19.6-375.5,123.9
	C399.4,319.7,617.9,319.7,838.8,388.4z M201.7,667.3c157.4,147,499.4,130.8,621.6,4.5C616.9,737.3,412.6,737.7,201.7,667.3z
	 M201,583.8c54.2,0,106.7,0.6,158.7,0c27.6,0,31.7-6.9,22-32.8c-13.8-38.6-59.4-63.5-102.1-57.6C234.5,499.6,203.8,532,201,583.8
	L201,583.8z M823.3,578.6c-1.1-51.4-41.5-87.7-92.8-87c-50.7,1.1-89.4,38.6-87.7,87H823.3z"/>
</svg>
